#!OML:ASF X:\für Bonn\!DataBase\2005_08_10_Bjorn_Final\c3d\bjorn.ASF
:FULLY-SPECIFIED
:DEGREES
350
root -0.121898 1.9391 9.15663 -2412.1 -12.5985 186.572
lowerback 32.2756 8.42035 -3.76244
upperback 26.9404 0.198826 0.721526
thorax 13.3881 -5.37832 1.5782
lowerneck 6.51895 8.7695 7.03063
upperneck 11.9014 11.4791 -5.12449
head 3.59303 5.47486 -2.76985
rclavicle -8.64713e-015 -9.54166e-015
rhumerus -351.957 -14.6684 281.281
rradius 27.4972
rwrist 15.8184
rhand -23.8129 18.5745
rfingers 7.12502
rthumb 2.65802 -11.3887
lclavicle -8.64713e-015 -9.54166e-015
lhumerus 19.1397 -25.6695 61.3162
lradius 38.4664
lwrist 4.19473
lhand -40.7744 -13.1551
lfingers 7.12502
lthumb -13.7142 736.373
rfemur -253.282 -148.405 177.358
rtibia 116.622
rfoot 38.3485 12.3542
rtoes 2.12876
lfemur 101.739 176.558 159.397
ltibia 119.299
lfoot 33.4182 -1.50101
ltoes 0.837716
351
root -0.122771 1.93155 9.18287 -2412.37 -12.7241 186.801
lowerback 31.9738 8.40743 -3.99597
upperback 26.8414 0.289486 0.685119
thorax 13.3663 -5.30266 1.6616
lowerneck 6.65264 8.61098 7.13977
upperneck 12.2414 11.2261 -4.93715
head 3.66528 5.3407 -2.73547
rclavicle 2.39784e-015 -4.45278e-014
rhumerus -351.524 -15.1859 280.739
rradius 26.9667
rwrist 16.4082
rhand -23.583 18.2412
rfingers 7.12502
rthumb 2.88007 -11.7191
lclavicle 2.39784e-015 -4.45278e-014
lhumerus 19.4666 -24.94 62.4248
lradius 37.5013
lwrist 3.30026
lhand -40.8717 -13.649
lfingers 7.12502
lthumb -13.808 735.873
rfemur -252.753 -148.366 177.081
rtibia 116.386
rfoot 38.4423 12.3777
rtoes 2.29154
lfemur 102.061 176.898 159.296
ltibia 119.079
lfoot 33.5022 -1.29832
ltoes 0.943198
352
root -0.123811 1.92451 9.20924 -2412.65 -12.8856 187.014
lowerback 31.6836 8.40704 -4.27861
upperback 26.7527 0.375663 0.642466
thorax 13.3531 -5.24126 1.76303
lowerneck 6.7603 8.45751 7.20743
upperneck 12.574 10.9745 -4.72488
head 3.73524 5.20652 -2.68403
rclavicle -4.17572e-014 -9.22361e-014
rhumerus -351.134 -15.5187 280.25
rradius 26.4861
rwrist 16.8105
rhand -23.3869 17.8015
rfingers 7.12502
rthumb 3.06946 -12.1562
lclavicle -4.17572e-014 -9.22361e-014
lhumerus 19.7565 -24.2627 63.4773
lradius 36.6216
lwrist 2.51132
lhand -41.0174 -14.0703
lfingers 7.12502
lthumb -13.9483 735.442
rfemur -252.215 -148.315 176.753
rtibia 116.136
rfoot 38.5492 12.4335
rtoes 2.34335
lfemur 102.402 177.254 159.141
ltibia 118.846
lfoot 33.5582 -1.16113
ltoes 0.917291
353
root -0.125147 1.91773 9.23569 -2412.93 -13.041 187.259
lowerback 31.4124 8.39236 -4.50911
upperback 26.6529 0.460544 0.595789
thorax 13.3212 -5.16814 1.83561
lowerneck 6.87972 8.28808 7.29956
upperneck 12.9438 10.6969 -4.51453
head 3.8175 5.05864 -2.6385
rclavicle -2.30839e-014 -4.77083e-014
rhumerus -350.85 -15.7532 279.842
rradius 26.0459
rwrist 17.069
rhand -23.1395 17.3286
rfingers 7.12502
rthumb 3.3084 -12.6255
lclavicle -2.30839e-014 -4.77083e-014
lhumerus 20.003 -23.6947 64.5036
lradius 35.7945
lwrist 1.83258
lhand -41.0206 -14.4259
lfingers 7.12502
lthumb -13.9515 735.086
rfemur -251.647 -148.236 176.426
rtibia 115.891
rfoot 38.657 12.4628
rtoes 2.41671
lfemur 102.755 177.62 159
ltibia 118.61
lfoot 33.6453 -1.00362
ltoes 0.951562
354
root -0.126817 1.91154 9.26182 -2413.26 -13.1788 187.519
lowerback 31.1565 8.38421 -4.72563
upperback 26.5824 0.536851 0.564071
thorax 13.3222 -5.11038 1.91415
lowerneck 7.00252 8.12226 7.36839
upperneck 13.2742 10.4234 -4.29673
head 3.8838 4.91353 -2.58653
rclavicle 1.06847e-014 4.13472e-014
rhumerus -350.513 -16.0552 279.424
rradius 25.5696
rwrist 17.4741
rhand -22.8427 16.9495
rfingers 7.12502
rthumb 3.59501 -12.9999
lclavicle 1.06847e-014 4.13472e-014
lhumerus 20.2486 -23.1759 65.4632
lradius 35.0265
lwrist 1.25227
lhand -40.9173 -14.756
lfingers 7.12502
lthumb -13.8519 734.763
rfemur -251.013 -148.158 176.089
rtibia 115.641
rfoot 38.7432 12.4792
rtoes 2.54989
lfemur 103.15 177.972 158.877
ltibia 118.382
lfoot 33.6967 -0.87651
ltoes 0.946584
355
root -0.128248 1.90593 9.28908 -2413.63 -13.3059 187.79
lowerback 30.9561 8.3807 -4.92339
upperback 26.5025 0.615868 0.545131
thorax 13.2897 -5.05065 1.99815
lowerneck 7.07058 7.94882 7.40135
upperneck 13.9722 10.1609 -4.2403
head 3.66272 4.74876 -2.36229
rclavicle 3.54831e-014 1.43125e-014
rhumerus -350.203 -16.4867 279.001
rradius 25.0623
rwrist 17.9587
rhand -22.4652 16.7318
rfingers 7.12502
rthumb 3.95959 -13.2112
lclavicle 3.54831e-014 1.43125e-014
lhumerus 20.4608 -22.7155 66.4042
lradius 34.3002
lwrist 0.706635
lhand -40.6546 -15.1091
lfingers 7.12502
lthumb -13.5988 734.427
rfemur -250.307 -148.102 175.739
rtibia 115.381
rfoot 38.8216 12.4949
rtoes 2.73229
lfemur 103.614 178.318 158.765
ltibia 118.138
lfoot 33.7535 -0.748247
ltoes 0.953406
356
root -0.129974 1.90011 9.31596 -2414.03 -13.4229 188.086
lowerback 30.7664 8.36896 -5.09011
upperback 26.4362 0.682454 0.521793
thorax 13.2728 -4.99666 2.06133
lowerneck 7.15741 7.77858 7.43734
upperneck 14.3574 9.86594 -3.97489
head 3.73884 4.59147 -2.29597
rclavicle -7.45443e-015 -3.18055e-014
rhumerus -349.903 -16.8964 278.593
rradius 24.5774
rwrist 18.4145
rhand -22.0499 16.5602
rfingers 7.12502
rthumb 4.36061 -13.3749
lclavicle -7.45443e-015 -3.18055e-014
lhumerus 20.6634 -22.4019 67.1705
lradius 33.679
lwrist 0.312959
lhand -40.3258 -15.4538
lfingers 7.12502
lthumb -13.2818 734.103
rfemur -249.567 -148.033 175.387
rtibia 115.119
rfoot 38.8933 12.4692
rtoes 2.99385
lfemur 104.093 178.659 158.668
ltibia 117.895
lfoot 33.8214 -0.610858
ltoes 1.16826
